<?xml version="1.0" encoding="UTF-8" standalone="no"?>
<!-- Created with Inkscape (http://www.inkscape.org/) -->

<svg
   xmlns:dc="http://purl.org/dc/elements/1.1/"
   xmlns:cc="http://creativecommons.org/ns#"
   xmlns:rdf="http://www.w3.org/1999/02/22-rdf-syntax-ns#"
   xmlns:svg="http://www.w3.org/2000/svg"
   xmlns="http://www.w3.org/2000/svg"
   xmlns:xlink="http://www.w3.org/1999/xlink"
   xmlns:sodipodi="http://sodipodi.sourceforge.net/DTD/sodipodi-0.dtd"
   xmlns:inkscape="http://www.inkscape.org/namespaces/inkscape"
   width="197.73314mm"
   height="54.585812mm"
   viewBox="0 0 197.73314 54.585812"
   version="1.1"
   id="svg8"
   inkscape:version="0.92.1 r15371"
   sodipodi:docname="logo.svg">
  <defs
     id="defs2">
    <inkscape:perspective
       sodipodi:type="inkscape:persp3d"
       inkscape:vp_x="0 : 27.29279 : 1"
       inkscape:vp_y="0 : 999.99998 : 0"
       inkscape:vp_z="198.18117 : 27.29279 : 1"
       inkscape:persp3d-origin="99.090587 : 18.195194 : 1"
       id="perspective4495" />
    <linearGradient
       inkscape:collect="always"
       id="linearGradient5928">
      <stop
         style="stop-color:#ffcc33;stop-opacity:1;"
         offset="0"
         id="stop5924" />
      <stop
         style="stop-color:#ffcc33;stop-opacity:0;"
         offset="1"
         id="stop5926" />
    </linearGradient>
    <linearGradient
       inkscape:collect="always"
       xlink:href="#linearGradient5928"
       id="linearGradient5930"
       x1="6.7300959"
       y1="98.343079"
       x2="221.25264"
       y2="98.343079"
       gradientUnits="userSpaceOnUse" />
  </defs>
  <sodipodi:namedview
     id="base"
     pagecolor="#ffffff"
     bordercolor="#666666"
     borderopacity="1.0"
     inkscape:pageopacity="0.0"
     inkscape:pageshadow="2"
     inkscape:zoom="0.7"
     inkscape:cx="384.49082"
     inkscape:cy="201.20438"
     inkscape:document-units="mm"
     inkscape:current-layer="layer1"
     showgrid="false"
     fit-margin-top="0"
     fit-margin-left="0"
     fit-margin-right="0"
     fit-margin-bottom="0"
     inkscape:window-width="1366"
     inkscape:window-height="706"
     inkscape:window-x="-8"
     inkscape:window-y="-8"
     inkscape:window-maximized="1" />
  <metadata
     id="metadata5">
    <rdf:RDF>
      <cc:Work
         rdf:about="">
        <dc:format>image/svg+xml</dc:format>
        <dc:type
           rdf:resource="http://purl.org/dc/dcmitype/StillImage" />
        <dc:title></dc:title>
      </cc:Work>
    </rdf:RDF>
  </metadata>
  <g
     inkscape:label="Layer 1"
     inkscape:groupmode="layer"
     id="layer1"
     transform="translate(-17.178737,-144.92719)">
    <path
       style="font-style:normal;font-weight:normal;font-size:10.35051632px;line-height:0.80000001;font-family:sans-serif;text-align:end;letter-spacing:0px;word-spacing:0px;text-anchor:end;fill:#ffcc33;fill-opacity:1;stroke:none;stroke-width:0.25876293"
       d="m 29.258103,144.92719 -9.546704,31.87867 h -2.532662 v 5.06843 h 11.743469 v -5.06843 h -2.980697 c 0.104585,-0.49017 0.239245,-1.05029 0.403593,-1.68051 0.179289,-0.63023 0.365943,-1.2955 0.560173,-1.99575 0.20917,-0.70025 0.35111,-1.19009 0.425813,-1.47019 h 11.227739 l 1.389579,5.14645 H 37.05711 v 5.06843 h 12.05766 v -5.06843 h -2.510441 l -9.233027,-31.87867 z m 148.294307,0 v 10.4252 h 4.63899 v -5.43584 h 6.8802 v 26.88931 h -3.24941 v 5.06843 h 17.25631 c 3.16743,0 5.68492,-0.937 7.55251,-2.81017 1.86759,-1.89067 2.80138,-4.68293 2.80138,-8.37675 0,-2.43336 -0.50017,-4.50778 -1.5012,-6.22339 -1.00103,-1.73312 -2.34608,-3.01108 -4.03438,-3.83387 -1.6883,-0.8228 -3.63803,-1.23404 -5.84926,-1.23404 h -6.40942 l 0.045,-9.47952 h 3.0701 v -4.98936 z m -144.529163,6.11849 h 0.134359 c 0.04482,0.21007 0.149845,0.64786 0.314193,1.3131 0.164348,0.64773 0.283414,1.14642 0.358118,1.49655 l 3.451468,12.84107 h -8.538497 c 0.478104,-1.80314 1.658339,-6.06597 3.54087,-12.78836 z m 55.557331,3.83387 c -1.404427,0 -2.681888,0.20979 -3.832323,0.62994 -1.150435,0.40264 -2.114378,0.96328 -2.891298,1.68103 -0.776917,0.71776 -1.449184,1.53139 -2.016929,2.44171 -0.567748,0.89282 -1.008645,1.87355 -1.322401,2.94143 -0.313753,1.06788 -0.545124,2.10951 -0.694531,3.12487 -0.134467,0.99786 -0.201539,2.01294 -0.201539,3.04581 0,9.10324 3.66757,13.65498 11.003463,13.65498 3.481189,0 6.58931,-0.85788 9.323461,-2.57349 l -1.367356,-4.51652 c -2.420397,1.1204 -4.736155,1.68052 -6.947381,1.68052 -2.046878,0 -3.495916,-0.52524 -4.347538,-1.57561 -0.85162,-1.05038 -1.26288,-2.71355 -1.232998,-4.98936 h 14.410489 v -2.70475 c 0,-8.56054 -3.294261,-12.84056 -9.883119,-12.84056 z m 49.326702,0.0522 c -1.92735,0 -3.63791,0.36803 -5.13198,1.10329 -1.49408,0.73526 -2.68939,1.75035 -3.58583,3.04581 -0.89645,1.27795 -1.57651,2.73134 -2.03967,4.35942 -0.44822,1.62808 -0.67231,3.39589 -0.67231,5.30407 0,1.94319 0.20901,3.72037 0.62735,5.33094 0.43328,1.59307 1.08319,3.01939 1.94975,4.27984 0.86656,1.26045 2.02496,2.24117 3.47421,2.94142 1.46419,0.70026 3.16695,1.05007 5.10925,1.05007 1.6136,0 3.07043,-0.23633 4.37028,-0.709 1.31478,-0.49017 2.40559,-1.1466 3.27215,-1.96939 0.8815,-0.8403 1.61356,-1.8382 2.19624,-2.99362 0.59763,-1.17291 1.02345,-2.41548 1.27745,-3.72845 0.26893,-1.33047 0.40359,-2.74847 0.40359,-4.254 0,-1.52305 -0.12738,-2.94989 -0.38137,-4.28036 -0.254,-1.33048 -0.67202,-2.58241 -1.25471,-3.75533 -0.56774,-1.17292 -1.28524,-2.17967 -2.1518,-3.01997 -0.85162,-0.8403 -1.91228,-1.49672 -3.18224,-1.96939 -1.26996,-0.49017 -2.69664,-0.73535 -4.28036,-0.73535 z m -86.372501,0.57774 v 4.7532 h 2.420525 v 16.72714 h -2.487705 v 4.88446 H 66.34886 c 2.300873,0 4.183013,-0.69182 5.647201,-2.07481 1.464191,-1.38299 2.19625,-3.23877 2.19625,-5.5671 0,-0.8228 -0.08215,-1.5927 -0.246499,-2.31046 -0.164346,-0.73526 -0.500221,-1.47965 -1.008205,-2.23242 -0.507984,-0.77027 -1.172972,-1.36527 -1.994712,-1.78542 1.718183,-1.29546 2.577105,-3.08982 2.577105,-5.38313 0,-2.20579 -0.657191,-3.92154 -1.971974,-5.14698 -1.299842,-1.24294 -3.219932,-1.86448 -5.759855,-1.86448 z m 49.550981,0 v 8.56072 h 4.25814 v -3.80752 h 4.10104 v 16.77985 h -2.9807 v 4.83175 h 12.48296 v -4.83175 h -3.13727 v -16.77985 h 4.10104 v 3.80752 h 4.25813 v -8.56072 z m 51.38859,0 v 4.7532 h 2.42053 v 16.72714 h -2.48771 v 4.88446 h 14.88075 c 2.30087,0 4.18352,-0.69182 5.64772,-2.07481 1.46419,-1.38299 2.19624,-3.23877 2.19624,-5.5671 0,-0.8228 -0.0821,-1.5927 -0.24649,-2.31046 -0.16435,-0.73526 -0.50022,-1.47965 -1.00821,-2.23242 -0.50798,-0.77027 -1.17297,-1.36527 -1.99471,-1.78542 1.71818,-1.29546 2.5771,-3.08982 2.5771,-5.38313 0,-2.20579 -0.65719,-3.92154 -1.97197,-5.14698 -1.29984,-1.24294 -3.21993,-1.86448 -5.75985,-1.86448 z m -92.356115,4.59558 h 4.258138 c 1.987114,0 2.980695,0.98021 2.980695,2.94091 0,0.89282 -0.261522,1.61951 -0.784447,2.17971 -0.522925,0.5602 -1.180116,0.84026 -1.971974,0.84026 h -4.482412 z m 28.462343,0 c 2.614628,0 3.95188,1.91669 4.011641,5.75056 h -8.449095 c 0.0747,-1.61058 0.478165,-2.96715 1.210262,-4.07004 0.747035,-1.1204 1.822765,-1.68052 3.227192,-1.68052 z m 72.477232,0 h 4.25814 c 1.98711,0 2.98069,0.98021 2.98069,2.94091 0,0.89282 -0.26152,1.61951 -0.78445,2.17971 -0.52292,0.5602 -1.18011,0.84026 -1.97197,0.84026 h -4.48241 z m -23.06113,0.21033 c 3.06285,0 4.59456,2.80944 4.59456,8.42894 0,5.56698 -1.57642,8.3504 -4.72892,8.35039 -0.97114,0 -1.78535,-0.20978 -2.44274,-0.62993 -0.65739,-0.43766 -1.15808,-1.0592 -1.50172,-1.86449 -0.32869,-0.82279 -0.56006,-1.68952 -0.69453,-2.59984 -0.11952,-0.92783 -0.17931,-2.01319 -0.17931,-3.25613 0,-1.13791 0.0749,-2.17069 0.22427,-3.09852 0.14941,-0.94534 0.40313,-1.82924 0.76171,-2.65203 0.35858,-0.8403 0.87434,-1.49672 1.54668,-1.96939 0.67233,-0.47267 1.47874,-0.709 2.42,-0.709 z m 57.64145,4.07003 h 5.5578 c 1.53889,0 2.82415,0.54242 3.85506,1.62781 1.03091,1.06788 1.54616,2.59103 1.54616,4.56923 0,1.9782 -0.47782,3.5102 -1.43402,4.59558 -0.95621,1.08539 -2.17388,1.62781 -3.65301,1.62781 h -5.87199 z m -135.519895,6.30194 h 4.773867 c 1.01597,0 1.785461,0.28058 2.308386,0.84078 0.537866,0.5602 0.80667,1.30407 0.80667,2.2319 0,0.96285 -0.276601,1.76815 -0.829406,2.41588 -0.537866,0.64773 -1.299562,0.97151 -2.28565,0.97151 h -4.773867 z m 100.939575,0 h 4.77387 c 1.01596,0 1.78494,0.28058 2.30787,0.84078 0.53786,0.5602 0.80718,1.30407 0.80718,2.2319 0,0.96285 -0.2766,1.76815 -0.82941,2.41588 -0.53786,0.64773 -1.29955,0.97151 -2.28564,0.97151 h -4.77387 z M 17.556491,183.638 v 3.77962 H 214.86021 V 183.638 Z m 108.462629,5.68854 c -0.93068,0 -1.6932,0.27864 -2.28772,0.83665 -0.59451,0.55436 -0.97141,1.32417 -1.13016,2.3089 h -1.33997 v -2.97605 h -1.79265 v 8.14576 h 1.79265 v -3.60495 h 1.27021 c 0.0778,1.17803 0.42344,2.1024 1.03663,2.77348 0.6163,0.66742 1.43317,1.00097 2.45101,1.00097 0.57895,0 1.08302,-0.1022 1.51257,-0.30644 0.42954,-0.20424 0.79516,-0.49406 1.09709,-0.86972 0.2957,-0.36836 0.52031,-0.81326 0.67283,-1.3348 0.15252,-0.52519 0.22841,-1.10127 0.22841,-1.72857 0,-1.31297 -0.31281,-2.34871 -0.93845,-3.10731 -0.62253,-0.7586 -1.47991,-1.13792 -2.57245,-1.13792 z m 15.05748,0 c -1.11744,0 -1.9938,0.38084 -2.62878,1.14309 -0.63498,0.7586 -0.9524,1.79281 -0.9524,3.10214 0,1.29837 0.31742,2.33055 0.9524,3.09645 0.63498,0.76225 1.51134,1.14308 2.62878,1.14308 1.12055,0 1.99845,-0.38083 2.63343,-1.14308 0.63498,-0.7659 0.9524,-1.79808 0.9524,-3.09645 0,-1.30933 -0.31896,-2.34354 -0.95705,-3.10214 -0.63809,-0.76225 -1.51445,-1.14309 -2.62878,-1.14309 z m 46.76459,0 c -1.11744,0 -1.9938,0.38084 -2.62878,1.14309 -0.63499,0.7586 -0.9524,1.79281 -0.9524,3.10214 0,1.29837 0.31741,2.33055 0.9524,3.09645 0.63498,0.76225 1.51134,1.14308 2.62878,1.14308 1.12055,0 1.99793,-0.38083 2.63291,-1.14308 0.63498,-0.7659 0.9524,-1.79808 0.9524,-3.09645 0,-1.30933 -0.31896,-2.34354 -0.95705,-3.10214 -0.63809,-0.76225 -1.51394,-1.14309 -2.62826,-1.14309 z m 16.17317,0 c -1.11744,0 -1.9938,0.38084 -2.62878,1.14309 -0.63498,0.7586 -0.9524,1.79281 -0.9524,3.10214 0,1.29837 0.31742,2.33055 0.9524,3.09645 0.63498,0.76225 1.51134,1.14308 2.62878,1.14308 1.12055,0 1.99845,-0.38083 2.63343,-1.14308 0.63498,-0.7659 0.95239,-1.79808 0.95239,-3.09645 0,-1.30933 -0.31895,-2.34354 -0.95704,-3.10214 -0.63809,-0.76225 -1.51445,-1.14309 -2.62878,-1.14309 z m -91.79233,0.1695 v 8.14576 h 3.20807 c 0.43577,0 0.80601,-0.0493 1.11105,-0.1478 0.30815,-0.10211 0.60351,-0.28617 0.88676,-0.55242 0.22411,-0.21153 0.4,-0.48304 0.52762,-0.81493 0.13073,-0.33554 0.19637,-0.70214 0.19637,-1.09968 0,-0.39389 -0.0544,-0.75693 -0.1633,-1.08882 -0.10894,-0.33554 -0.28329,-0.61265 -0.52296,-0.83147 -0.23656,-0.21883 -0.50885,-0.36832 -0.81701,-0.44856 -0.30815,-0.0839 -0.70505,-0.12608 -1.19062,-0.12608 h -1.45211 v -1.46038 h 3.61838 v -1.57562 z m 18.67638,0 v 8.14576 h 1.79265 v -2.65307 h 1.1157 c 0.50736,0 0.93093,-0.0824 1.27021,-0.2465 0.34239,-0.16412 0.65211,-0.40665 0.92914,-0.7276 0.20232,-0.23706 0.35769,-0.52892 0.46664,-0.8754 0.10894,-0.35012 0.16381,-0.70757 0.16381,-1.07228 0,-0.47048 -0.0749,-0.87318 -0.22428,-1.20871 -0.14629,-0.33554 -0.35961,-0.61113 -0.63975,-0.82631 -0.23345,-0.17871 -0.50266,-0.31193 -0.8077,-0.39946 -0.30193,-0.0912 -0.6737,-0.13643 -1.1157,-0.13643 z m 18.39526,0 v 8.14576 h 1.79317 v -6.57014 h 2.64738 v 6.57014 h 1.79266 v -8.14576 z m 8.01243,0 v 8.14576 h 5.02812 v -1.57561 h -3.24477 v -2.01332 h 3.0117 v -1.57561 h -3.0117 v -1.4056 h 3.24477 v -1.57562 z m 6.53655,0 v 8.14576 h 1.79266 v -2.65307 h 1.11569 c 0.50736,0 0.93093,-0.0824 1.27021,-0.2465 0.34239,-0.16412 0.65211,-0.40665 0.92914,-0.7276 0.20232,-0.23706 0.35769,-0.52892 0.46664,-0.8754 0.10894,-0.35012 0.16381,-0.70757 0.16381,-1.07228 0,-0.47048 -0.0749,-0.87318 -0.22427,-1.20871 -0.1463,-0.33554 -0.35962,-0.61113 -0.63976,-0.82631 -0.23345,-0.17871 -0.50266,-0.31193 -0.8077,-0.39946 -0.30193,-0.0912 -0.6737,-0.13643 -1.11569,-0.13643 z m 7.00319,0 v 8.14576 h 5.02863 v -1.57561 h -3.24476 v -2.01332 h 3.01119 v -1.57561 h -3.01119 v -1.4056 h 3.24476 v -1.57562 z m 6.53655,0 v 8.14576 h 3.03496 c 0.50425,0 0.91961,-0.0508 1.24643,-0.15296 0.32995,-0.10212 0.63198,-0.27399 0.90589,-0.5147 0.23656,-0.20424 0.42168,-0.46101 0.55552,-0.77101 0.13696,-0.31001 0.20568,-0.66186 0.20568,-1.05575 0,-0.54342 -0.13384,-0.98121 -0.40153,-1.3131 -0.26458,-0.33189 -0.62404,-0.55104 -1.07849,-0.65681 v -0.0434 c 0.32372,-0.16777 0.57396,-0.40116 0.75138,-0.70022 0.17742,-0.30271 0.26613,-0.65101 0.26613,-1.0449 0,-0.33918 -0.0651,-0.64019 -0.19585,-0.90278 -0.12762,-0.26625 -0.32402,-0.47777 -0.5886,-0.63459 -0.25523,-0.14953 -0.51316,-0.24614 -0.77462,-0.28991 -0.25835,-0.0438 -0.66808,-0.0656 -1.22835,-0.0656 z m 16.36024,0 c 0,1.26556 -0.0964,2.45434 -0.28938,3.56671 -0.18988,1.11238 -0.46576,2.11201 -0.82683,2.99827 h -0.5271 v 3.45198 h 1.64796 v -1.89859 h 4.22094 v 1.89859 h 1.64796 v -3.45198 h -0.68627 v -6.56498 z m 15.22078,0 v 8.14576 h 3.03496 c 0.50425,0 0.9196,-0.0508 1.24643,-0.15296 0.32994,-0.10212 0.63198,-0.27399 0.90589,-0.5147 0.23656,-0.20424 0.42168,-0.46101 0.55552,-0.77101 0.13696,-0.31001 0.20567,-0.66186 0.20567,-1.05575 0,-0.54342 -0.13383,-0.98121 -0.40152,-1.3131 -0.26458,-0.33189 -0.62404,-0.55104 -1.07849,-0.65681 v -0.0434 c 0.32372,-0.16777 0.57396,-0.40116 0.75138,-0.70022 0.17742,-0.30271 0.26613,-0.65101 0.26613,-1.0449 0,-0.33918 -0.0651,-0.64019 -0.19585,-0.90278 -0.12762,-0.26625 -0.32402,-0.47777 -0.5886,-0.63459 -0.25524,-0.14953 -0.51368,-0.24614 -0.77515,-0.28991 -0.25834,-0.0438 -0.66755,-0.0656 -1.22783,-0.0656 z m -82.95824,1.36736 c 0.221,0 0.43124,0.0514 0.63045,0.15348 0.19921,0.0985 0.3751,0.25508 0.52762,0.47026 0.15252,0.21518 0.27353,0.49788 0.3638,0.84801 0.0934,0.34648 0.14004,0.7568 0.14004,1.23093 0,0.45589 -0.0405,0.85351 -0.12144,1.19269 -0.0809,0.33554 -0.20502,0.6274 -0.3731,0.8754 -0.1463,0.21518 -0.32064,0.37534 -0.52297,0.48111 -0.20232,0.10577 -0.41718,0.15865 -0.6444,0.15865 -0.22411,0 -0.43744,-0.0508 -0.63976,-0.15297 -0.19921,-0.10212 -0.37509,-0.26076 -0.52761,-0.47594 -0.15252,-0.21153 -0.27559,-0.48864 -0.36897,-0.83147 -0.0903,-0.34283 -0.1354,-0.75672 -0.1354,-1.24178 0,-0.47413 0.0467,-0.89005 0.14005,-1.24748 0.0965,-0.36106 0.2211,-0.64377 0.37362,-0.84801 0.16186,-0.21882 0.33928,-0.37542 0.53227,-0.47025 0.19609,-0.0948 0.4048,-0.14263 0.6258,-0.14263 z m 15.07608,0 c 0.22411,0 0.43897,0.0493 0.64441,0.1478 0.20854,0.0985 0.39212,0.25711 0.55087,0.47594 0.15563,0.21153 0.28178,0.48864 0.37827,0.83147 0.0965,0.34283 0.14469,0.75876 0.14469,1.24747 0,0.45589 -0.042,0.85351 -0.12609,1.19269 -0.084,0.33554 -0.21326,0.6274 -0.38757,0.8754 -0.15563,0.21883 -0.33768,0.38103 -0.54622,0.48679 -0.20855,0.10212 -0.42802,0.15297 -0.65836,0.15297 -0.23034,0 -0.44981,-0.0508 -0.65836,-0.15297 -0.20854,-0.10212 -0.39059,-0.26076 -0.54622,-0.47594 -0.15563,-0.21518 -0.28178,-0.49229 -0.37827,-0.83147 -0.0934,-0.34283 -0.14004,-0.75672 -0.14004,-1.24178 0,-0.47413 0.0482,-0.89005 0.14469,-1.24748 0.0996,-0.36106 0.22729,-0.64377 0.38292,-0.84801 0.16809,-0.21882 0.35166,-0.37542 0.55087,-0.47025 0.20233,-0.0948 0.41719,-0.14263 0.64441,-0.14263 z m 46.76459,0 c 0.22411,0 0.43845,0.0493 0.64389,0.1478 0.20854,0.0985 0.39264,0.25711 0.55138,0.47594 0.15563,0.21153 0.28126,0.48864 0.37776,0.83147 0.0965,0.34283 0.14521,0.75876 0.14521,1.24747 0,0.45589 -0.042,0.85351 -0.12609,1.19269 -0.084,0.33554 -0.21327,0.6274 -0.38758,0.8754 -0.15563,0.21883 -0.33767,0.38103 -0.54621,0.48679 -0.20855,0.10212 -0.42803,0.15297 -0.65836,0.15297 -0.23034,0 -0.44981,-0.0508 -0.65836,-0.15297 -0.20855,-0.10212 -0.39059,-0.26076 -0.54622,-0.47594 -0.15563,-0.21518 -0.28178,-0.49229 -0.37827,-0.83147 -0.0934,-0.34283 -0.14004,-0.75672 -0.14004,-1.24178 0,-0.47413 0.0482,-0.89005 0.14469,-1.24748 0.0996,-0.36106 0.22729,-0.64377 0.38292,-0.84801 0.16808,-0.21882 0.35166,-0.37542 0.55087,-0.47025 0.20232,-0.0948 0.41718,-0.14263 0.64441,-0.14263 z m 16.17317,0 c 0.22411,0 0.43897,0.0493 0.64441,0.1478 0.20854,0.0985 0.39212,0.25711 0.55087,0.47594 0.15563,0.21153 0.28177,0.48864 0.37827,0.83147 0.0965,0.34283 0.14469,0.75876 0.14469,1.24747 0,0.45589 -0.042,0.85351 -0.12609,1.19269 -0.084,0.33554 -0.21326,0.6274 -0.38757,0.8754 -0.15563,0.21883 -0.33768,0.38103 -0.54622,0.48679 -0.20855,0.10212 -0.42802,0.15297 -0.65836,0.15297 -0.23034,0 -0.44981,-0.0508 -0.65836,-0.15297 -0.20854,-0.10212 -0.39059,-0.26076 -0.54622,-0.47594 -0.15563,-0.21518 -0.28178,-0.49229 -0.37827,-0.83147 -0.0934,-0.34283 -0.14004,-0.75672 -0.14004,-1.24178 0,-0.47413 0.0482,-0.89005 0.14469,-1.24748 0.0996,-0.36106 0.22729,-0.64377 0.38292,-0.84801 0.16809,-0.21882 0.35166,-0.37542 0.55087,-0.47025 0.20233,-0.0948 0.41719,-0.14263 0.64441,-0.14263 z m -24.85275,0.12609 h 0.16795 c 0.35173,0 0.62402,0.004 0.817,0.0109 0.1961,0.004 0.35968,0.0347 0.49042,0.093 0.14629,0.0657 0.24731,0.16581 0.30333,0.30076 0.0591,0.13494 0.0889,0.2702 0.0889,0.40514 0,0.17507 -0.0251,0.33015 -0.0749,0.46509 -0.0498,0.1313 -0.15544,0.23858 -0.31729,0.32246 -0.11517,0.062 -0.2726,0.0986 -0.47181,0.10956 -0.19921,0.0109 -0.44022,0.0165 -0.72347,0.0165 h -0.28009 z m 31.5805,0 h 0.16847 c 0.35173,0 0.62402,0.004 0.817,0.0109 0.1961,0.004 0.35916,0.0347 0.4899,0.093 0.14629,0.0657 0.24782,0.16581 0.30385,0.30076 0.0591,0.13494 0.0884,0.2702 0.0884,0.40514 0,0.17507 -0.0246,0.33015 -0.0744,0.46509 -0.0498,0.1313 -0.15596,0.23858 -0.31781,0.32246 -0.11517,0.062 -0.27208,0.0986 -0.47129,0.10956 -0.19921,0.0109 -0.44074,0.0165 -0.72399,0.0165 h -0.28009 z m -78.0557,0.0274 h 0.30799 c 0.29571,0 0.53262,0.006 0.71004,0.0165 0.17742,0.007 0.35946,0.0546 0.54622,0.14211 0.14007,0.0657 0.26262,0.18208 0.36845,0.34985 0.10583,0.16412 0.15917,0.36141 0.15917,0.59118 0,0.23341 -0.0267,0.43222 -0.0796,0.59634 -0.0498,0.16048 -0.13236,0.29877 -0.24753,0.41548 -0.13384,0.1313 -0.3005,0.21875 -0.49971,0.26252 -0.19609,0.0438 -0.44633,0.0656 -0.75137,0.0656 h -0.51367 z m 32.94425,0 h 0.30799 c 0.2957,0 0.53261,0.006 0.71003,0.0165 0.17742,0.007 0.35946,0.0546 0.54622,0.14211 0.14007,0.0657 0.26314,0.18208 0.36897,0.34985 0.10583,0.16412 0.15865,0.36141 0.15865,0.59118 0,0.23341 -0.0267,0.43222 -0.0796,0.59634 -0.0498,0.16048 -0.13236,0.29877 -0.24753,0.41548 -0.13385,0.1313 -0.29999,0.21875 -0.4992,0.26252 -0.1961,0.0438 -0.44685,0.0656 -0.75189,0.0656 h -0.51366 z m 29.76459,0.0548 h 1.73684 v 4.98936 h -2.79207 c 0.26768,-0.65284 0.49485,-1.39875 0.68161,-2.23759 0.18987,-0.84249 0.31448,-1.75975 0.37362,-2.75177 z m -81.394,2.97604 h 1.13895 c 0.25835,0 0.4609,0.029 0.6072,0.0873 0.14629,0.0584 0.26167,0.13665 0.34571,0.23512 0.084,0.10213 0.1384,0.21348 0.1633,0.33383 0.0249,0.12036 0.0372,0.24798 0.0372,0.38293 0,0.14953 -0.0236,0.28631 -0.0703,0.41031 -0.0436,0.12035 -0.10716,0.22459 -0.19121,0.31212 -0.084,0.0912 -0.20557,0.16592 -0.36431,0.22428 -0.15564,0.0583 -0.33152,0.0873 -0.52762,0.0873 h -1.13895 z m 65.16036,0.0708 h 0.39171 c 0.26769,0 0.5246,0.002 0.7705,0.006 0.2459,0.004 0.43922,0.0291 0.57929,0.0765 0.20543,0.0693 0.35004,0.17505 0.43408,0.31729 0.0872,0.13859 0.13074,0.3374 0.13074,0.59634 0,0.19695 -0.0359,0.37186 -0.10748,0.52504 -0.0685,0.14953 -0.19617,0.27004 -0.38293,0.36122 -0.18364,0.0912 -0.38414,0.13846 -0.60203,0.14211 -0.21788,0.004 -0.57889,0.006 -1.08314,0.006 h -0.13074 z m 31.5805,0 h 0.39223 c 0.26769,0 0.52459,0.002 0.77049,0.006 0.2459,0.004 0.43871,0.0291 0.57878,0.0765 0.20543,0.0693 0.35056,0.17505 0.4346,0.31729 0.0871,0.13859 0.13074,0.3374 0.13074,0.59634 0,0.19695 -0.0359,0.37186 -0.10749,0.52504 -0.0685,0.14953 -0.19616,0.27004 -0.38292,0.36122 -0.18365,0.0912 -0.38466,0.13846 -0.60255,0.14211 -0.21788,0.004 -0.57888,0.006 -1.08314,0.006 h -0.13074 z"
       id="text4487"
       inkscape:connector-curvature="0" />
    <flowRoot
       xml:space="preserve"
       id="flowRoot4491"
       style="font-style:normal;font-weight:normal;font-size:40px;line-height:1.25;font-family:sans-serif;letter-spacing:0px;word-spacing:0px;fill:#000000;fill-opacity:1;stroke:none"
       transform="scale(0.26458333)"><flowRegion
         id="flowRegion4493"><rect
           id="rect4495"
           width="371.42856"
           height="60"
           x="62.857143"
           y="308.23398" /></flowRegion><flowPara
         id="flowPara4497" /></flowRoot>  </g>
</svg>
